<?xml version="1.0" encoding="utf-8"?>
<!-- Generator: Adobe Illustrator 19.0.0, SVG Export Plug-In . SVG Version: 6.00 Build 0)  -->
<svg version="1.1" xmlns="http://www.w3.org/2000/svg" xmlns:xlink="http://www.w3.org/1999/xlink" x="0px" y="0px"
	 viewBox="0 0 20 20" style="enable-background:new 0 0 20 20;" xml:space="preserve">
<style type="text/css">
	.st0{fill:#EAEAEA;stroke:#000000;stroke-miterlimit:10;stroke-opacity:0.75;}
	.st1{opacity:0.3;}
	.st2{opacity:0.73;fill:#222326;}
	.st3{opacity:0.75;fill:#222326;}
	.st4{opacity:0.35;fill:#222326;}
	.st5{opacity:0.5;fill:#222326;}
	.st6{opacity:0.15;fill:#222326;}
</style>
<g id="_x31_">
	<path id="XMLID_4_" class="st0" d="M18.5,18.5h-17c-0.4-0.4-0.6-0.6-1-1v-16h19v16C19.1,17.9,18.9,18.1,18.5,18.5z"/>
</g>
<g id="_x33_">
	<path id="XMLID_3_" class="st1" d="M18.5,18.5h-17c-0.4-0.4-0.6-0.6-1-1v-3h19v3C19.1,17.9,18.9,18.1,18.5,18.5z"/>
</g>
<g id="_x32_">
	<rect id="XMLID_2_" x="12" y="13" class="st2" width="5" height="5"/>
	<rect id="XMLID_1_" x="12" y="2" class="st3" width="5" height="3"/>
	<rect id="XMLID_5_" x="12" y="8.5" class="st4" width="5" height="1"/>
	<rect id="XMLID_6_" x="12" y="10.5" class="st4" width="5" height="1"/>
	<rect id="XMLID_8_" x="5.8" y="15.5" class="st5" width="1.5" height="1.5"/>
	<rect id="XMLID_9_" x="9.2" y="15.5" class="st5" width="1.5" height="1.5"/>
	<polygon id="XMLID_7_" class="st6" points="3.5,14.5 2.5,14.5 2.5,11.5 12,11.5 12,12.5 3.5,12.5 	"/>
	<line id="XMLID_18_" class="st6" x1="12" y1="12" x2="12" y2="13"/>
	<rect id="XMLID_17_" x="12" y="6.5" class="st4" width="5" height="1"/>
	<rect id="XMLID_10_" x="2.2" y="15.5" class="st5" width="1.5" height="1.5"/>
</g>
</svg>
