<?xml version="1.0" encoding="utf-8"?>
<!-- Generator: Adobe Illustrator 19.0.0, SVG Export Plug-In . SVG Version: 6.00 Build 0)  -->
<svg version="1.1" xmlns="http://www.w3.org/2000/svg" xmlns:xlink="http://www.w3.org/1999/xlink" x="0px" y="0px"
	 viewBox="0 0 20 20" style="enable-background:new 0 0 20 20;" xml:space="preserve">
<style type="text/css">
	.st0{fill:#FFFFFF;stroke:#000000;stroke-miterlimit:10;stroke-opacity:0.75;}
	.st1{fill:url(#XMLID_23_);}
	.st2{fill-opacity:0.15;}
	.st3{opacity:0.4;}
	.st4{opacity:0.35;}
	.st5{opacity:0.3;}
	.st6{fill-opacity:5.000000e-002;stroke:#000000;stroke-width:0.5;stroke-miterlimit:10;stroke-opacity:0.25;}
</style>
<g id="_x31_">
	<path id="XMLID_7_" class="st0" d="M18.2,2.8c-0.1-0.9-1.1-2.3-2.5-2.3H4.2c-1.5,0-2.4,1.3-2.5,2.3L1.1,13.2l-0.6,2.5
		c-0.2,1.8,0.9,3.3,2.5,3.8c0.6,0.2,1.3,0,1.7-0.5l0.6-0.6l9.3,0l0.6,0.6c0.5,0.5,1.1,0.7,1.7,0.5c1.6-0.5,2.6-2.1,2.5-3.8l-0.6-2.5
		L18.2,2.8z"/>
</g>
<g id="_x32_">
	<linearGradient id="XMLID_23_" gradientUnits="userSpaceOnUse" x1="10" y1="19.5" x2="10" y2="0.5">
		<stop  offset="0" style="stop-color:#000000;stop-opacity:0.3"/>
		<stop  offset="1" style="stop-color:#000000;stop-opacity:0"/>
	</linearGradient>
	<path id="XMLID_6_" class="st1" d="M18.2,2.8c-0.1-0.9-1.1-2.3-2.5-2.3H4.2c-1.5,0-2.4,1.3-2.5,2.3L1.1,13.2l-0.6,2.5
		c-0.2,1.8,0.9,3.3,2.5,3.8c0.6,0.2,1.3,0,1.7-0.5l0.6-0.6l9.3,0l0.6,0.6c0.5,0.5,1.1,0.7,1.7,0.5c1.6-0.5,2.6-2.1,2.5-3.8l-0.6-2.5
		L18.2,2.8z"/>
</g>
<g id="_x33_">
	<path id="XMLID_5_" class="st2" d="M4,1l0.5,5.5C4.8,9,6.9,11,9.5,11h0.9c2.6,0,4.8-2,5-4.5L16,1H4z"/>
</g>
<g id="_x34_">
	<path id="XMLID_1_" class="st3" d="M15.1,5.3c0,1-0.9,1.9-1.9,1.9H6.8c-1,0-1.9-0.9-1.9-1.9H15.1z"/>
	<path id="XMLID_3_" class="st4" d="M5.1,14.9H4.7c-0.4,0-0.7-0.3-0.7-0.7v-2c0-0.4,0.3-0.8,0.7-0.8h0.4c0.4,0,0.7,0.3,0.7,0.8v2
		C5.9,14.6,5.5,14.9,5.1,14.9z"/>
	<path id="XMLID_4_" class="st4" d="M15.3,14.9h-0.4c-0.4,0-0.7-0.3-0.7-0.7v-2c0-0.4,0.3-0.8,0.7-0.8h0.4c0.4,0,0.7,0.3,0.7,0.8v2
		C16,14.6,15.7,14.9,15.3,14.9z"/>
	<g id="XMLID_11_">
		<path id="XMLID_15_" class="st5" d="M7.8,10.5c0.2,0.1,0.4,0.1,0.6,0.2V9.1H7.8V10.5z"/>
		<path id="XMLID_16_" class="st5" d="M10.9,9.1h-0.6v1.9c0.2,0,0.4-0.1,0.6-0.1V9.1z"/>
		<path id="XMLID_17_" class="st5" d="M9.7,9.1H9.1v1.8c0.2,0,0.4,0.1,0.6,0.1V9.1z"/>
		<path id="XMLID_18_" class="st5" d="M12.2,9.1h-0.6v1.6c0.2-0.1,0.4-0.1,0.6-0.2V9.1z"/>
		<path id="XMLID_19_" class="st5" d="M7.2,9.1H5.9c0,0.4,0.6,0.8,1.3,1.2V9.1z"/>
		<path id="XMLID_20_" class="st5" d="M12.9,9.1v1.2c0.7-0.3,1.3-0.7,1.3-1.2H12.9z"/>
	</g>
	<path id="XMLID_2_" class="st6" d="M12,16H8c-0.3,0-0.5-0.2-0.5-0.5v-2.2c0-0.3,0.2-0.5,0.5-0.5H12c0.3,0,0.5,0.2,0.5,0.5v2.2
		C12.5,15.8,12.3,16,12,16z"/>
</g>
</svg>
