<?xml version="1.0" encoding="utf-8"?>
<!-- Generator: Adobe Illustrator 19.0.0, SVG Export Plug-In . SVG Version: 6.00 Build 0)  -->
<svg version="1.1" id="Capa_1" xmlns="http://www.w3.org/2000/svg" xmlns:xlink="http://www.w3.org/1999/xlink" x="0px" y="0px"
	 viewBox="4 -4 24 24" style="enable-background:new 4 -4 24 24;" xml:space="preserve">
<style type="text/css">
	.st0{fill:#FFFFFF;}
	.st1{display:none;}
	.st2{display:inline;fill:#FFFFFF;}
</style>
<g id="Capa_1_1_">
	<path class="st0" d="M16-0.5c-4.7,0-8.5,3.8-8.5,8.5s3.8,8.5,8.5,8.5s8.5-3.8,8.5-8.5S20.7-0.5,16-0.5z M22,9h-5v5h-2V9h-5V7h5V2h2
		v5h5V9z"/>
</g>
<g id="Capa_2" class="st1">
	<polygon class="st2" points="18,12 14,12 14,8 12,8 12,12 8,12 8,14 12,14 12,18 14,18 14,14 18,14 	"/>
</g>
</svg>
