<?xml version="1.0" encoding="utf-8"?>
<!-- Generator: Adobe Illustrator 19.0.0, SVG Export Plug-In . SVG Version: 6.00 Build 0)  -->
<svg version="1.1" id="Capa_1" xmlns="http://www.w3.org/2000/svg" xmlns:xlink="http://www.w3.org/1999/xlink" x="0px" y="0px"
	 viewBox="-12 14 24 24" style="enable-background:new -12 14 24 24;" xml:space="preserve">
<style type="text/css">
	.st0{display:none;}
	.st1{display:inline;}
	.st2{fill:#FFFFFF;}
</style>
<g id="Capa_1_1_" class="st0">
	<g id="XMLID_2_" class="st1">
		<path id="XMLID_3_" class="st2" d="M4.7,23.9C2.9,22,0,22-1.8,23.9L-3,25.1l-1.2-1.3C-6,22-8.9,22-10.7,23.9c-2,2.1-2,5.5,0,7.6
			l7.7,8.1l7.7-8C6.8,29.4,6.8,26,4.7,23.9z"/>
	</g>
</g>
<g id="Capa_2">
	<g>
		<polygon class="st2" points="5,20 9,20 9,24 11,24 11,18 5,18 		"/>
		<polygon class="st2" points="-9,24 -9,20 -5,20 -5,18 -11,18 -11,24 		"/>
		<polygon class="st2" points="9,28 9,32 5,32 5,34 11,34 11,28 		"/>
		<polygon class="st2" points="-5,32 -9,32 -9,28 -11,28 -11,34 -5,34 		"/>
	</g>
</g>
</svg>
