<?xml version="1.0" encoding="utf-8"?>
<!-- Generator: Adobe Illustrator 19.0.0, SVG Export Plug-In . SVG Version: 6.00 Build 0)  -->
<svg version="1.1" xmlns="http://www.w3.org/2000/svg" xmlns:xlink="http://www.w3.org/1999/xlink" x="0px" y="0px"
	 viewBox="-47 49 32 32" style="enable-background:new -47 49 32 32;" xml:space="preserve">
<style type="text/css">
	.st0{display:none;}
	.st1{display:inline;fill:#FFFFFF;}
	.st2{fill:#FFFFFF;}
	.st3{display:inline;}
</style>
<g id="Capa_2" class="st0">
	<polygon class="st1" points="-77.9,122.3 -90.9,122.3 -90.9,114.3 -88.7,114.3 -88.7,120.2 -75.9,120.2 -75.9,123.5 -68.8,116.7 
		-66.9,118.4 -78,129 	"/>
	<polygon class="st1" points="-84,114.1 -78.2,114.1 -78.2,107.9 -72.3,113.4 -65.1,113.4 -65.1,105.2 -78.2,105.2 -78.2,99 
		-89.1,109.1 	"/>
</g>
<g id="Capa_3">
	<g id="XMLID_1_">
		<path id="XMLID_24_" class="st2" d="M-24.2,71l4.5-4.2l4.5,4.1h-2.8c0,5-4,9-9,9c-1.1,0-2.1-0.2-3.1-0.6l1.2-3.4
			c0.6,0.2,1.2,0.3,1.9,0.3c3,0,5.4-2.4,5.4-5.4L-24.2,71z"/>
	</g>
	<path id="XMLID_10_" class="st2" d="M-25.7,68.9c0-5.1-4.1-9.2-9.2-9.2c-0.7,0-1.4,0.1-2.1,0.3l-0.9,0.7l-3.8,3.5l-0.7-0.6
		c-1.1,1.5-1.8,3.4-1.8,5.4c0,5.1,4.1,9.2,9.2,9.2c1.7,0,3.3-0.5,4.7-1.3l0.7-2l1.3,0.4c1-1.1,1.8-2.4,2.2-3.9h-0.2l0.2-0.3
		C-25.7,70.3-25.7,69.6-25.7,68.9z M-34.9,70.3c-0.8,0-1.4-0.6-1.4-1.4c0-0.8,0.6-1.4,1.4-1.4c0.8,0,1.4,0.6,1.4,1.4
		C-33.5,69.7-34.1,70.3-34.9,70.3z"/>
	<g id="XMLID_4_">
		<path id="XMLID_22_" class="st2" d="M-37.8,59l-4.5,4.2l-4.5-4.1h2.8c0-5,4-9,9-9c1.1,0,2.1,0.2,3.1,0.6l-1.2,3.4
			c-0.6-0.2-1.2-0.3-1.9-0.3c-3,0-5.4,2.4-5.4,5.4L-37.8,59z"/>
	</g>
	<path id="XMLID_11_" class="st2" d="M-27.1,52.1c-1.7,0-3.2,0.5-4.6,1.3l-0.7,2l-1.3-0.4l0,0c-0.9,0.9-1.5,2-1.9,3.2
		c0.7-0.2,1.5-0.3,2.2-0.3c2.1,0,4.1,0.7,5.7,1.9c0.2-0.1,0.4-0.1,0.6-0.1c0.7,0,1.3,0.6,1.3,1.3c0,0.2-0.1,0.4-0.1,0.6
		c1.2,1.6,1.9,3.6,1.9,5.7c0,0.6-0.1,1.1-0.2,1.7l3.7-3.3l0.7,0.6c1.1-1.5,1.7-3.3,1.7-5.2C-18.1,56.1-22.1,52.1-27.1,52.1z"/>
</g>
<g id="Capa_5" class="st0">
</g>
<g id="Capa_4" class="st0">
	<path id="XMLID_9_" class="st3" d="M-40,56.7l3.8-3.8c0.8-0.8,0.8-2,0-2.7v0c-0.8-0.8-2-0.8-2.7,0l-3.8,3.8l-1.4-1.4
		c-0.3-0.3-0.8-0.1-0.8,0.3l-1.3,6.9c-0.1,0.3,0.2,0.7,0.6,0.6l6.8-1.4c0.4-0.1,0.5-0.6,0.3-0.8L-40,56.7z"/>
	<path id="XMLID_8_" class="st3" d="M-20.8,74.4l-3.4,3.4c-0.7,0.7-0.7,1.8,0,2.5h0c0.7,0.7,1.8,0.7,2.5,0l3.4-3.4l1.2,1.2
		c0.3,0.3,0.8,0.1,0.8-0.3l1.1-5.9c0.1-0.3-0.2-0.6-0.6-0.6l-5.9,1.1c-0.4,0.1-0.5,0.6-0.3,0.8L-20.8,74.4z"/>
</g>
</svg>
