<?xml version="1.0" encoding="utf-8"?>
<!-- Generator: Adobe Illustrator 19.0.0, SVG Export Plug-In . SVG Version: 6.00 Build 0)  -->
<svg version="1.1" xmlns="http://www.w3.org/2000/svg" xmlns:xlink="http://www.w3.org/1999/xlink" x="0px" y="0px"
	 viewBox="-3 5 24 24" style="enable-background:new -3 5 24 24;" xml:space="preserve">
<style type="text/css">
	.st0{fill:#FFFFFF;}
	.st1{display:none;}
	.st2{display:inline;fill:#FFFFFF;}
</style>
<g id="Capa_1">
	<path class="st0" d="M9,7C3.5,7-1,11.5-1,17S3.5,27,9,27s10-4.5,10-10S14.5,7,9,7z M15,18h-5v5H8v-5H3v-2h5v-5h2v5h5V18z"/>
</g>
<g id="Capa_2" class="st1">
	<polygon class="st2" points="14,16 10,16 10,12 8,12 8,16 4,16 4,18 8,18 8,22 10,22 10,18 14,18 	"/>
</g>
</svg>