<?xml version="1.0" encoding="utf-8"?>
<!-- Generator: Adobe Illustrator 19.0.0, SVG Export Plug-In . SVG Version: 6.00 Build 0)  -->
<svg version="1.1" id="Capa_1" xmlns="http://www.w3.org/2000/svg" xmlns:xlink="http://www.w3.org/1999/xlink" x="0px" y="0px"
	 viewBox="4 -4 24 24" style="enable-background:new 4 -4 24 24;" xml:space="preserve">
<style type="text/css">
	.st0{display:none;}
	.st1{display:inline;fill:#FFFFFF;}
	.st2{fill:#FFFFFF;}
</style>
<g id="Capa_2" class="st0">
	<polygon class="st1" points="10,22 6,22 6,18 4,18 4,22 0,22 0,24 4,24 4,28 6,28 6,24 10,24 	"/>
</g>
<rect x="5" y="1" class="st2" width="2" height="2"/>
<rect x="5" y="5" class="st2" width="2" height="2"/>
<rect x="5" y="9" class="st2" width="2" height="2"/>
<rect x="5" y="13" class="st2" width="2" height="2"/>
<rect x="25" y="1" class="st2" width="2" height="2"/>
<rect x="25" y="5" class="st2" width="2" height="2"/>
<rect x="25" y="9" class="st2" width="2" height="2"/>
<rect x="25" y="13" class="st2" width="2" height="2"/>
<rect x="9" y="17" class="st2" width="2" height="2"/>
<rect x="13" y="17" class="st2" width="2" height="2"/>
<rect x="17" y="17" class="st2" width="2" height="2"/>
<rect x="21" y="17" class="st2" width="2" height="2"/>
<rect x="9" y="-3" class="st2" width="2" height="2"/>
<rect x="13" y="-3" class="st2" width="2" height="2"/>
<rect x="17" y="-3" class="st2" width="2" height="2"/>
<rect x="21" y="-3" class="st2" width="2" height="2"/>
<path class="st2" d="M22.1,1H9.9C9.4,1,9,1.4,9,1.9v12.1C9,14.6,9.4,15,9.9,15h12.1c0.6,0,0.9-0.4,0.9-0.9V1.9C23,1.4,22.6,1,22.1,1
	z M12.3,5.7c-0.7,0-1.4-0.7-1.4-1.4s0.7-1.4,1.4-1.4s1.4,0.7,1.4,1.4S13,5.7,12.3,5.7z"/>
</svg>
