<?xml version="1.0" encoding="utf-8"?>
<!-- Generator: Adobe Illustrator 19.0.0, SVG Export Plug-In . SVG Version: 6.00 Build 0)  -->
<svg version="1.1" xmlns="http://www.w3.org/2000/svg" xmlns:xlink="http://www.w3.org/1999/xlink" x="0px" y="0px"
	 viewBox="-14 16 20 20" style="enable-background:new -14 16 20 20;" xml:space="preserve">
<style type="text/css">
	.st0{display:none;}
	.st1{display:inline;}
	.st2{stroke:#FFFFFF;stroke-miterlimit:10;}
</style>
<g id="Capa_1" class="st0">
	<g id="Capa_1_1_">
		<path id="XMLID_2_" class="st1" d="M-0.4,40.4l-5.1-5.1c0.9-1.2,1.3-2.4,1.3-4.1c0.1-3.7-3-6.7-6.7-6.7s-6.7,3.1-6.7,6.7
			s3,6.7,6.7,6.7c1.6,0,2.9-0.5,4-1.4l5.1,5.1L-0.4,40.4z M-14.4,34.8c-0.9-0.9-1.5-2.2-1.5-3.5s0.5-2.6,1.5-3.5
			c0.9-0.9,2.2-1.5,3.5-1.5s2.6,0.5,3.5,1.5c0.9,0.9,1.5,2.2,1.5,3.5s-0.5,2.6-1.5,3.5s-2.2,1.5-3.5,1.5
			C-12.2,36.2-13.5,35.8-14.4,34.8z"/>
	</g>
	<g id="Capa_2">
		<g id="Capa_1_2_" class="st1">
			<path d="M-14.3,27.7c-2.9,2.9-2.9,7.7,0,10.6s7.7,2.9,10.6,0s2.9-7.7,0-10.6S-11.4,24.8-14.3,27.7z M-4.7,30l-3,3l3,3L-6,37.3
				l-3-3l-3,3l-1.2-1.3l3-3l-3-3l1.2-1.2l3,3l3-3L-4.7,30z"/>
		</g>
	</g>
	<g id="Capa_3" class="st1">
		<polygon points="0.3,23 -2.9,26 0.3,29 -1.1,30.3 -4.1,27.2 -7.1,30.3 -8.3,29 -5.3,26 -8.3,23 -7.1,21.8 -4.1,24.8 -1.1,21.8 		
			"/>
	</g>
</g>
<g id="Capa_2_1_">
	<line class="st2" x1="-9" y1="21" x2="1" y2="31"/>
	<line class="st2" x1="-9" y1="31" x2="1" y2="21"/>
</g>
</svg>
