<?xml version="1.0" encoding="utf-8"?>
<!-- Generator: Adobe Illustrator 19.0.0, SVG Export Plug-In . SVG Version: 6.00 Build 0)  -->
<svg version="1.1" xmlns="http://www.w3.org/2000/svg" xmlns:xlink="http://www.w3.org/1999/xlink" x="0px" y="0px"
	 viewBox="-5 7 20 20" style="enable-background:new -5 7 20 20;" xml:space="preserve">
<style type="text/css">
	.st0{display:none;}
	.st1{display:inline;}
	.st2{fill:#FFFFFF;}
</style>
<g id="Capa_1" class="st0">
	<path id="XMLID_2_" class="st1" d="M13.6,24.4l-5.1-5.1c0.9-1.2,1.3-2.4,1.3-4.1c0.1-3.7-3-6.7-6.7-6.7s-6.7,3.1-6.7,6.7
		s3,6.7,6.7,6.7c1.6,0,2.9-0.5,4-1.4l5.1,5.1L13.6,24.4z M-0.4,18.8c-0.9-0.9-1.5-2.2-1.5-3.5s0.5-2.6,1.5-3.5
		c0.9-0.9,2.2-1.5,3.5-1.5s2.6,0.5,3.5,1.5c0.9,0.9,1.5,2.2,1.5,3.5c0,1.3-0.5,2.6-1.5,3.5s-2.2,1.5-3.5,1.5
		C1.8,20.2,0.5,19.8-0.4,18.8z"/>
</g>
<g id="Capa_2" class="st0">
	<g id="Capa_1_1_" class="st1">
		<path d="M-0.3,11.7c-2.9,2.9-2.9,7.7,0,10.6s7.7,2.9,10.6,0s2.9-7.7,0-10.6S2.6,8.8-0.3,11.7z M9.3,14l-3,3l3,3L8,21.3l-3-3l-3,3
			L0.8,20l3-3l-3-3L2,12.8l3,3l3-3L9.3,14z"/>
	</g>
</g>
<g id="Capa_3">
	<polygon class="st2" points="9.3,14 6.2,17 9.3,20 8,21.3 5,18.2 2,21.3 0.8,20 3.8,17 0.8,14 2,12.8 5,15.8 8,12.8 	"/>
</g>
</svg>
