<?xml version="1.0" encoding="utf-8"?>
<!-- Generator: Adobe Illustrator 19.0.0, SVG Export Plug-In . SVG Version: 6.00 Build 0)  -->
<svg version="1.1" xmlns="http://www.w3.org/2000/svg" xmlns:xlink="http://www.w3.org/1999/xlink" x="0px" y="0px"
	 viewBox="-3 5 24 24" style="enable-background:new -3 5 24 24;" xml:space="preserve">
<style type="text/css">
	.st0{display:none;}
	.st1{display:inline;}
	.st2{fill:#FFFFFF;}
</style>
<g id="Capa_1" class="st0">
	<g id="XMLID_2_" class="st1">
		<path id="XMLID_3_" class="st2" d="M16.7,9.9C14.9,8,12,8,10.2,9.9L9,11.1L7.8,9.8C6,8,3.1,8,1.3,9.9c-2,2.1-2,5.5,0,7.6L9,25.6
			l7.7-8C18.8,15.4,18.8,12,16.7,9.9z"/>
	</g>
</g>
<g id="Capa_2">
	<g>
		<polygon class="st2" points="11,12 14,12 14,15 17,15 17,9 11,9 		"/>
		<polygon class="st2" points="4,15 4,12 7,12 7,9 1,9 1,15 		"/>
		<polygon class="st2" points="14,19 14,22 11,22 11,25 17,25 17,19 		"/>
		<polygon class="st2" points="7,22 4,22 4,19 1,19 1,25 7,25 		"/>
	</g>
</g>
</svg>
