<?xml version="1.0" encoding="utf-8"?>
<!-- Generator: Adobe Illustrator 19.0.0, SVG Export Plug-In . SVG Version: 6.00 Build 0)  -->
<svg version="1.1" id="Capa_1" xmlns="http://www.w3.org/2000/svg" xmlns:xlink="http://www.w3.org/1999/xlink" x="0px" y="0px"
	 viewBox="-12 14 24 24" style="enable-background:new -12 14 24 24;" xml:space="preserve">
<style type="text/css">
	.st0{fill:#FFFFFF;}
</style>
<path id="XMLID_11_" class="st0" d="M10.7,23.3c0,0-1-5.3-3.5-6.8c-1.8-1.1-3.5-0.4-5,0.1c-0.8,0.2-1.6,0.2-1.6,0.2h-1.1
	c0,0-0.8,0-1.6-0.2c-1.6-0.5-3.3-1.2-5.1,0c-2.5,1.4-3.5,6.7-3.5,6.7s-2.8,11.2,0,12.5c1.2,0.6,2.6-1.1,4.7-3.7
	c1.1-1.5,4.7-1.2,4.7-1.2h2.7c0,0,3.5-0.2,4.7,1.2c2.1,2.7,3.5,4.3,4.7,3.7C13.6,34.6,10.7,23.3,10.7,23.3z M-6,26c-1.1,0-2-1-2-2
	s1-2,2-2s2,1,2,2S-4.9,26-6,26z M2.4,25.1c-0.7,0-1.2-0.6-1.2-1.2s0.6-1.2,1.2-1.2s1.2,0.6,1.2,1.2S3.1,25.1,2.4,25.1z M5.1,27.8
	c-0.7,0-1.2-0.6-1.2-1.2c0-0.6,0.6-1.2,1.2-1.2c0.7,0,1.2,0.6,1.2,1.2C6.2,27.2,5.8,27.8,5.1,27.8z M5.1,22.5
	c-0.7,0-1.2-0.6-1.2-1.2c0-0.6,0.6-1.2,1.2-1.2c0.7,0,1.2,0.6,1.2,1.2C6.2,21.9,5.8,22.5,5.1,22.5z M7.6,25.1
	c-0.7,0-1.2-0.6-1.2-1.2s0.6-1.2,1.2-1.2s1.2,0.6,1.2,1.2S8.3,25.1,7.6,25.1z"/>
</svg>
