<?xml version="1.0" encoding="utf-8"?>
<!-- Generator: Adobe Illustrator 19.0.0, SVG Export Plug-In . SVG Version: 6.00 Build 0)  -->
<svg version="1.1" id="Capa_1" xmlns="http://www.w3.org/2000/svg" xmlns:xlink="http://www.w3.org/1999/xlink" x="0px" y="0px"
	 viewBox="0 0 24 24" style="enable-background:new 0 0 24 24;" xml:space="preserve">
<style type="text/css">
	.st0{fill-rule:evenodd;clip-rule:evenodd;fill:#FFFFFF;}
</style>
<path id="XMLID_11_" class="st0" d="M22.7,9.7c0,0-1-4.5-3.5-5.8c-1.8-0.9-3.5-0.3-5,0.1c-0.8,0.2-1.6,0.2-1.6,0.2l-1.1,0
	c0,0-0.8,0-1.6-0.2C8.3,3.6,6.6,3,4.8,4C2.3,5.2,1.3,9.7,1.3,9.7s-2.8,9.6,0,10.7c1.2,0.5,2.6-0.9,4.7-3.2c1.1-1.3,4.7-1,4.7-1
	l2.7,0c0,0,3.5-0.2,4.7,1c2.1,2.3,3.5,3.7,4.7,3.2C25.6,19.3,22.7,9.7,22.7,9.7z M5.2,12.4c-1.2,0-2.1-1-2.1-2.1s1-2.1,2.1-2.1
	s2.1,1,2.1,2.1S6.4,12.4,5.2,12.4z M14.9,11.3c-0.6,0-1-0.5-1-1s0.5-1,1-1s1,0.5,1,1S15.5,11.3,14.9,11.3z M17.2,13.6
	c-0.6,0-1-0.5-1-1s0.5-1,1-1c0.6,0,1,0.5,1,1S17.8,13.6,17.2,13.6z M17.2,9.1c-0.6,0-1-0.5-1-1s0.5-1,1-1c0.6,0,1,0.5,1,1
	S17.8,9.1,17.2,9.1z M19.4,11.3c-0.6,0-1-0.5-1-1s0.5-1,1-1s1,0.5,1,1S20,11.3,19.4,11.3z"/>
</svg>
