<?xml version="1.0" encoding="utf-8"?>
<!-- Generator: Adobe Illustrator 19.0.0, SVG Export Plug-In . SVG Version: 6.00 Build 0)  -->
<svg version="1.1" id="Capa_1" xmlns="http://www.w3.org/2000/svg" xmlns:xlink="http://www.w3.org/1999/xlink" x="0px" y="0px"
	 viewBox="4 -4 24 24" style="enable-background:new 4 -4 24 24;" xml:space="preserve">
<style type="text/css">
	.st0{fill:#FFFFFF;}
</style>
<path id="XMLID_37_" class="st0" d="M27.8,11.1l-2.3-8.2c-0.2-0.7-0.7-1.3-1.3-1.8C23.6,0.6,24,0.3,23.2,0l-0.5-0.2
	c-0.3-0.1-0.6-0.1-0.9,0c-0.1,0-0.2,0.1-0.2,0.1C21.3,0,21.2,0,21,0.1c-0.2,0.1-0.5,0.1-0.7,0.1l-8.6,0c-0.2,0-0.5,0-0.7-0.1
	C10.8,0,10.7,0,10.5-0.1c-0.1,0-0.2-0.1-0.2-0.1c-0.3-0.1-0.6-0.1-0.9,0L8.8,0C8,0.3,8.4,0.6,7.7,1.1C7.1,1.5,6.7,2.1,6.5,2.8
	l-2.3,8.2C3.6,13,4.4,15,6,16c0,0,0.1,0,0.1,0.1c0.3,0.2,0.5,0.2,0.7,0.2c0.2,0,0.4-0.2,0.5-0.2c1.5-1.1,2.7-4.8,4.9-5.2
	c0.2,0,0.5-0.1,0.9-0.1l5.8,0c0.4,0,0.8,0,0.9,0.1c2.2,0.4,3.4,4.1,4.9,5.2c0.1,0.1,0.2,0.2,0.5,0.2c0.2,0,0.4-0.1,0.7-0.2
	c0,0,0.1,0,0.1-0.1C27.6,15,28.4,13,27.8,11.1z M10,5.3v1.1H9V5.3H7.9v-1H9V3.2h1v1.2h1.2v1H10z M12.5,9.7c-0.8,0-1.5-0.6-1.5-1.5
	c0-0.8,0.6-1.5,1.5-1.5c0.8,0,1.5,0.6,1.5,1.5C14,9.1,13.3,9.7,12.5,9.7z M14.3,5.3c-0.3,0-0.5-0.2-0.5-0.5c0-0.3,0.2-0.5,0.5-0.5
	c0.3,0,0.5,0.2,0.5,0.5C14.8,5,14.6,5.3,14.3,5.3z M17.2,4.8c0-0.3,0.2-0.5,0.5-0.5c0.3,0,0.5,0.2,0.5,0.5c0,0.3-0.2,0.5-0.5,0.5
	C17.4,5.3,17.2,5,17.2,4.8z M19.5,9.7c-0.8,0-1.5-0.6-1.5-1.5c0-0.8,0.6-1.5,1.5-1.5s1.5,0.6,1.5,1.5C20.9,9.1,20.3,9.7,19.5,9.7z
	 M20.5,5.5c-0.4,0-0.7-0.3-0.7-0.7c0-0.4,0.3-0.7,0.7-0.7c0.4,0,0.7,0.3,0.7,0.7C21.2,5.2,20.9,5.5,20.5,5.5z M22.1,7.1
	c-0.4,0-0.7-0.3-0.7-0.7s0.3-0.7,0.7-0.7c0.4,0,0.7,0.3,0.7,0.7S22.5,7.1,22.1,7.1z M22.1,3.7c-0.4,0-0.7-0.3-0.7-0.7
	s0.3-0.7,0.7-0.7c0.4,0,0.7,0.3,0.7,0.7S22.5,3.7,22.1,3.7z M23.9,5.5c-0.4,0-0.7-0.3-0.7-0.7c0-0.4,0.3-0.7,0.7-0.7
	c0.4,0,0.7,0.3,0.7,0.7C24.6,5.2,24.3,5.5,23.9,5.5z"/>
</svg>