<?xml version="1.0" encoding="iso-8859-1"?>
<!-- Generator: Adobe Illustrator 19.0.0, SVG Export Plug-In . SVG Version: 6.00 Build 0)  -->
<svg version="1.1" id="Capa_1" xmlns="http://www.w3.org/2000/svg" xmlns:xlink="http://www.w3.org/1999/xlink" x="0px" y="0px"
	 viewBox="0 0 512 512" style="enable-background:new 0 0 512 512;" xml:space="preserve">
<path style="fill-rule:evenodd;clip-rule:evenodd;fill:#FFFFFF;" d="M266,112.246c0,0,15.027-0.237,30.327-4.525
	c27.972-7.84,59.572-18.853,93.891-1.473c47.245,23.926,66.116,107.968,66.116,107.968s53.224,178.737,0,199.941
	c-22.834,9.097-48.477-16.376-88.154-59.982c-21.442-23.565-87.153-18.995-87.153-18.995L230,335c0,0-65.595-4.572-87,19
	c-39.608,43.619-65.206,69.1-88,60c-53.131-21.211,0-200,0-200s18.838-84.067,66-108c34.259-17.385,65.803-6.368,93.727,1.474
	C229.999,111.763,245,112,245,112L266,112.246z"/>
<path style="fill-rule:evenodd;clip-rule:evenodd;fill:#FFFFFF;" d="M310.5,205c10.77,0,19.5,8.73,19.5,19.5
	c0,10.77-8.73,19.5-19.5,19.5s-19.5-8.73-19.5-19.5C291,213.731,299.73,205,310.5,205z"/>
<path style="fill-rule:evenodd;clip-rule:evenodd;fill:#FFFFFF;" d="M394.5,205c10.77,0,19.5,8.73,19.5,19.5
	c0,10.77-8.73,19.5-19.5,19.5s-19.5-8.73-19.5-19.5C375,213.731,383.73,205,394.5,205z"/>
<path style="fill-rule:evenodd;clip-rule:evenodd;fill:#FFFFFF;" d="M352.5,247c10.77,0,19.5,8.73,19.5,19.5s-8.73,19.5-19.5,19.5
	s-19.5-8.73-19.5-19.5S341.73,247,352.5,247z"/>
<path style="fill-rule:evenodd;clip-rule:evenodd;fill:#FFFFFF;" d="M352.5,163c10.77,0,19.5,8.73,19.5,19.5
	c0,10.769-8.73,19.5-19.5,19.5S333,193.27,333,182.5C333,171.731,341.73,163,352.5,163z"/>
<path style="fill-rule:evenodd;clip-rule:evenodd;fill:#FFFFFF;" d="M128,184c22.091,0,40,17.909,40,40s-17.909,40-40,40
	s-40-17.909-40-40S105.909,184,128,184z"/>
</svg>
