<?xml version="1.0" encoding="utf-8"?>
<!-- Generator: Adobe Illustrator 19.0.0, SVG Export Plug-In . SVG Version: 6.00 Build 0)  -->
<svg version="1.1" xmlns="http://www.w3.org/2000/svg" xmlns:xlink="http://www.w3.org/1999/xlink" x="0px" y="0px"
	 viewBox="4 -4 24 24" style="enable-background:new 4 -4 24 24;" xml:space="preserve">
<style type="text/css">
	.st0{display:none;}
	.st1{display:inline;fill:#FFFFFF;stroke:#000000;stroke-width:2;stroke-miterlimit:10;}
	.st2{fill:none;stroke:#FFFFFF;stroke-width:2;stroke-miterlimit:10;}
	.st3{fill:#FFFFFF;}
</style>
<g id="Capa_1" class="st0">
	<path id="XMLID_37_" class="st1" d="M26.8,10.8l-2.1-7.5c-0.2-0.6-0.6-1.2-1.2-1.7s-0.2-0.7-0.9-1l-0.5-0.2c-0.3-0.1-0.6-0.1-0.8,0
		c-0.1,0-0.2,0.1-0.2,0.1c-0.3,0.1-0.4,0.1-0.6,0.2s-0.5,0.1-0.6,0.1h-7.9c-0.2,0-0.5,0-0.6-0.1c-0.2-0.1-0.3-0.1-0.5-0.2
		c-0.1,0-0.2-0.1-0.2-0.1c-0.3-0.1-0.6-0.1-0.8,0L9.4,0.7c-0.7,0.3-0.4,0.6-1,1C7.8,2,7.5,2.6,7.3,3.2l-2.1,7.5
		c-0.6,1.8,0.2,3.7,1.7,4.6c0,0,0.1,0,0.1,0.1c0.3,0.2,0.5,0.2,0.6,0.2c0.2,0,0.4-0.2,0.5-0.2c1.4-1,2.5-4.4,4.5-4.8
		c0.2,0,0.5-0.1,0.8-0.1h5.3c0.4,0,0.7,0,0.8,0.1c2,0.4,3.1,3.8,4.5,4.8c0.1,0.1,0.2,0.2,0.5,0.2c0.2,0,0.4-0.1,0.6-0.2
		c0,0,0.1,0,0.1-0.1C26.6,14.4,27.4,12.6,26.8,10.8z M10.5,5.5v1H9.6v-1h-1V4.6h1v-1h0.9v1.1h1.1v0.9L10.5,5.5L10.5,5.5z M12.8,9.5
		c-0.7,0-1.4-0.6-1.4-1.4c0-0.7,0.6-1.4,1.4-1.4c0.7,0,1.4,0.6,1.4,1.4C14.2,9,13.5,9.5,12.8,9.5z M14.4,5.5c-0.3,0-0.5-0.2-0.5-0.5
		s0.2-0.5,0.5-0.5c0.3,0,0.5,0.2,0.5,0.5C14.9,5.2,14.7,5.5,14.4,5.5z M17.1,5.1c0-0.3,0.2-0.5,0.5-0.5c0.3,0,0.5,0.2,0.5,0.5
		s-0.2,0.5-0.5,0.5C17.3,5.5,17.1,5.2,17.1,5.1z M19.2,9.5c-0.7,0-1.4-0.6-1.4-1.4c0-0.7,0.6-1.4,1.4-1.4s1.4,0.6,1.4,1.4
		C20.5,9,19.9,9.5,19.2,9.5z M20.1,5.7c-0.4,0-0.6-0.3-0.6-0.6c0-0.4,0.3-0.6,0.6-0.6c0.4,0,0.6,0.3,0.6,0.6
		C20.8,5.4,20.5,5.7,20.1,5.7z M21.6,7.2c-0.4,0-0.6-0.3-0.6-0.6c0-0.4,0.3-0.6,0.6-0.6s0.6,0.3,0.6,0.6C22.2,6.9,22,7.2,21.6,7.2z
		 M21.6,4C21.2,4,21,3.8,21,3.4s0.3-0.6,0.6-0.6s0.6,0.3,0.6,0.6S22,4,21.6,4z M23.2,5.7c-0.4,0-0.6-0.3-0.6-0.6
		c0-0.4,0.3-0.6,0.6-0.6c0.4,0,0.6,0.3,0.6,0.6C23.9,5.4,23.6,5.7,23.2,5.7z"/>
</g>
<g id="Capa_1_copia_2">
	<path id="XMLID_2_" class="st2" d="M26.8,11.3l-2.1-8.5c-0.2-0.6-0.6-1.2-1.2-1.7c-0.6-0.5-0.2-0.7-0.9-1L22.1,0
		c-0.3-0.1-0.6-0.1-0.8,0c-0.1,0-0.2,0.1-0.2,0.1c-0.3,0.1-0.4,0.1-0.6,0.2s-0.5,0.1-0.6,0.1h-7.9c-0.2,0-0.5,0-0.6-0.1
		c-0.2-0.1-0.3-0.1-0.5-0.2c-0.1,0-0.2-0.1-0.2-0.1c-0.3-0.1-0.6-0.1-0.8,0L9.4,0.2c-0.7,0.3-0.4,0.6-1,1C7.8,1.5,7.5,2.1,7.3,2.7
		l-2.1,8.5c-0.6,1.8,0.2,3.7,1.7,4.6c0,0,0.1,0,0.1,0.1c0.3,0.2,0.5,0.2,0.6,0.2c0.2,0,0.4-0.2,0.5-0.2c1.4-1,2.5-4.4,4.5-4.8
		c0.2,0,0.5-0.1,0.8-0.1h5.3c0.4,0,0.7,0,0.8,0.1c2,0.4,3.1,3.8,4.5,4.8c0.1,0.1,0.2,0.2,0.5,0.2c0.2,0,0.4-0.1,0.6-0.2
		c0,0,0.1,0,0.1-0.1C26.6,14.9,27.4,13.1,26.8,11.3z"/>
</g>
<g id="Capa_1_copia">
	<path id="XMLID_1_" class="st3" d="M10.5,5.5v1H9.6v-1h-1V4.6h1v-1h0.9v1.1h1.1v0.9L10.5,5.5L10.5,5.5z M13,9c-0.5,0-1-0.4-1-1
		c0-0.5,0.4-1,1-1c0.5,0,1,0.4,1,1S13.5,9,13,9z M14.4,5.5c-0.3,0-0.5-0.2-0.5-0.5s0.2-0.5,0.5-0.5c0.3,0,0.5,0.2,0.5,0.5
		C14.9,5.2,14.7,5.5,14.4,5.5z M17.1,5.1c0-0.3,0.2-0.5,0.5-0.5c0.3,0,0.5,0.2,0.5,0.5s-0.2,0.5-0.5,0.5C17.3,5.5,17.1,5.2,17.1,5.1
		z M19,9c-0.5,0-1-0.4-1-1c0-0.5,0.4-1,1-1s1,0.4,1,1C19.9,8.6,19.5,9,19,9z M20.1,5.7c-0.4,0-0.6-0.3-0.6-0.6
		c0-0.4,0.3-0.6,0.6-0.6c0.4,0,0.6,0.3,0.6,0.6C20.8,5.4,20.5,5.7,20.1,5.7z M21.6,7.2c-0.4,0-0.6-0.3-0.6-0.6
		c0-0.4,0.3-0.6,0.6-0.6s0.6,0.3,0.6,0.6C22.2,6.9,22,7.2,21.6,7.2z M21.6,4C21.2,4,21,3.8,21,3.4s0.3-0.6,0.6-0.6s0.6,0.3,0.6,0.6
		S22,4,21.6,4z M23.2,5.7c-0.4,0-0.6-0.3-0.6-0.6c0-0.4,0.3-0.6,0.6-0.6c0.4,0,0.6,0.3,0.6,0.6C23.9,5.4,23.6,5.7,23.2,5.7z"/>
</g>
</svg>
