<?xml version="1.0" encoding="utf-8"?>
<!-- Generator: Adobe Illustrator 19.0.0, SVG Export Plug-In . SVG Version: 6.00 Build 0)  -->
<svg version="1.1" id="Capa_1" xmlns="http://www.w3.org/2000/svg" xmlns:xlink="http://www.w3.org/1999/xlink" x="0px" y="0px"
	 viewBox="0 0 20 20" style="enable-background:new 0 0 20 20;" xml:space="preserve">
<style type="text/css">
	.st0{fill:#FFFFFF;}
</style>
<path id="XMLID_2_" class="st0" d="M20,18.8l-5.9-5.9c1.1-1.4,1.7-3.1,1.7-5C15.9,3.6,12.3,0,8,0C3.7,0,0.1,3.6,0.1,7.9
	s3.5,7.9,7.9,7.9c1.9,0,3.6-0.7,4.9-1.8l5.9,5.9L20,18.8z M3.4,12.5c-1.2-1.2-1.9-2.9-1.9-4.6s0.7-3.4,1.9-4.6S6.2,1.3,8,1.3
	s3.4,0.7,4.6,1.9s1.9,2.9,1.9,4.6s-0.7,3.4-1.9,4.6c-1.2,1.2-2.9,1.9-4.6,1.9C6.2,14.4,4.6,13.8,3.4,12.5z"/>
</svg>
