<?xml version="1.0" encoding="utf-8"?>
<!-- Generator: Adobe Illustrator 19.0.0, SVG Export Plug-In . SVG Version: 6.00 Build 0)  -->
<svg version="1.1" id="Capa_1" xmlns="http://www.w3.org/2000/svg" xmlns:xlink="http://www.w3.org/1999/xlink" x="0px" y="0px"
	 viewBox="-5 7 20 20" style="enable-background:new -5 7 20 20;" xml:space="preserve">
<style type="text/css">
	.st0{fill:#000000;}
</style>
<path id="XMLID_2_" class="st0" d="M13.6,24.3l-5.1-5.1c0.9-1.2,1.3-2.4,1.3-4.1c0.1-3.7-3-6.7-6.7-6.7s-6.7,3.1-6.7,6.7
	s3,6.7,6.7,6.7c1.6,0,2.9-0.5,4-1.4l5.1,5.1L13.6,24.3z M-0.4,18.7c-0.9-0.9-1.5-2.2-1.5-3.5s0.5-2.6,1.5-3.5
	c0.9-0.9,2.2-1.5,3.5-1.5s2.6,0.5,3.5,1.5c0.9,0.9,1.5,2.2,1.5,3.5s-0.5,2.6-1.5,3.5s-2.2,1.5-3.5,1.5C1.8,20.1,0.5,19.7-0.4,18.7z"
	/>
</svg>
