<?xml version="1.0" encoding="utf-8"?>
<!-- Generator: Adobe Illustrator 19.0.0, SVG Export Plug-In . SVG Version: 6.00 Build 0)  -->
<svg version="1.1" xmlns="http://www.w3.org/2000/svg" xmlns:xlink="http://www.w3.org/1999/xlink" x="0px" y="0px"
	 viewBox="0 0 24 24" style="enable-background:new 0 0 24 24;" xml:space="preserve">
<style type="text/css">
	.st0{display:none;}
	.st1{display:inline;}
	.st2{fill:#FFFFFF;}
</style>
<g id="Capa_1" class="st0">
	<path id="XMLID_2_" class="st1" d="M24,14.4V9.6h-2.7c-0.2-0.9-0.6-1.8-1-2.5l1.9-1.9l-3.4-3.4L17,3.6c-0.8-0.5-1.6-0.8-2.6-1.1V0
		H9.6v2.6C8.7,2.8,7.8,3.2,7,3.6L5.2,1.8L1.8,5.2l1.9,1.9c-0.4,0.8-0.8,1.6-1,2.5H0v4.8h2.8c0.2,0.9,0.6,1.7,1,2.4l-2,2l3.4,3.4l2-2
		c0.7,0.4,1.5,0.7,2.4,1V24h4.8v-2.9c0.8-0.2,1.6-0.5,2.4-1l2,2l3.4-3.4l-2-2c0.5-0.7,0.8-1.6,1-2.4H24z M12,15.4
		c-1.9,0-3.4-1.5-3.4-3.4s1.5-3.4,3.4-3.4s3.4,1.5,3.4,3.4S13.9,15.4,12,15.4z"/>
</g>
<g id="Capa_2">
	<path id="XMLID_9_" class="st2" d="M23,13v-2h-3.1c-0.2-1.5-0.8-2.8-1.6-3.9l2.2-2.2l-1.4-1.4l-2.2,2.2c-1.1-0.9-2.4-1.4-3.9-1.6V1
		h-2v3.1C9.5,4.3,8.2,4.8,7.1,5.7L4.9,3.5L3.5,4.9l2.2,2.2C4.8,8.2,4.3,9.5,4.1,11H1v2h3.1c0.2,1.5,0.8,2.8,1.6,3.9l-2.2,2.2
		l1.4,1.4l2.2-2.2c1.1,0.9,2.4,1.4,3.9,1.6V23h2v-3.1c1.5-0.2,2.8-0.8,3.9-1.6l2.2,2.2l1.4-1.4l-2.2-2.2c0.9-1.1,1.4-2.4,1.6-3.9H23
		z M12,18c-3.3,0-6-2.7-6-6s2.7-6,6-6s6,2.7,6,6S15.3,18,12,18z"/>
</g>
</svg>
