<?xml version="1.0" encoding="utf-8"?>
<!-- Generator: Adobe Illustrator 19.0.0, SVG Export Plug-In . SVG Version: 6.00 Build 0)  -->
<svg version="1.1" xmlns="http://www.w3.org/2000/svg" xmlns:xlink="http://www.w3.org/1999/xlink" x="0px" y="0px"
	 viewBox="8 -8 32 32" style="enable-background:new 8 -8 32 32;" xml:space="preserve">
<style type="text/css">
	.st0{fill:none;stroke:#FFFFFF;stroke-miterlimit:10;}
	.st1{fill:#FFFFFF;}
	.st2{font-family:'Arial-BoldMT';}
	.st3{font-size:8px;}
</style>
<g id="Capa_2">
	<line class="st0" x1="24" y1="0.8" x2="18" y2="-5.2"/>
	<line class="st0" x1="24" y1="0.8" x2="30" y2="-5.2"/>
</g>
<g id="Capa_4_1_">
	<path class="st1" d="M37.5,0.5h-27c-0.6,0-1,0.4-1,1v17.2c0,0.6,0.4,1,1,1h27c0.6,0,1-0.4,1-1V1.5C38.5,1,38.1,0.5,37.5,0.5z
		 M31.5,14.2c0,1.7-1.3,3-3,3h-14c-1.7,0-3-1.4-3-3v-8c0-1.7,1.4-3,3-3h14c1.7,0,3,1.4,3,3V14.2z M35,11.4c-0.7,0-1.3-0.6-1.3-1.3
		s0.6-1.3,1.3-1.3c0.7,0,1.3,0.6,1.3,1.3S35.7,11.4,35,11.4z M35,7.7c-0.8,0-1.5-0.7-1.5-1.5s0.7-1.5,1.5-1.5c0.8,0,1.5,0.7,1.5,1.5
		S35.8,7.7,35,7.7z"/>
	<rect x="11.8" y="20.2" class="st1" width="5.5" height="1"/>
	<rect x="30.7" y="20.2" class="st1" width="5.5" height="1"/>
	<text transform="matrix(1 0 0 1 13.5018 12.9259)" class="st1 st2 st3">OFF</text>
</g>
</svg>
