<?xml version="1.0" encoding="utf-8"?>
<!-- Generator: Adobe Illustrator 19.0.0, SVG Export Plug-In . SVG Version: 6.00 Build 0)  -->
<svg version="1.1" xmlns="http://www.w3.org/2000/svg" xmlns:xlink="http://www.w3.org/1999/xlink" x="0px" y="0px"
	 viewBox="-2 -2 20 20" style="enable-background:new -2 -2 20 20;" xml:space="preserve">
<style type="text/css">
	.st0{fill:#FFFFFF;}
	.st1{opacity:0.75;fill:none;stroke:#000000;stroke-miterlimit:10;}
</style>
<g id="_x31_">
	<path id="XMLID_37_" class="st0" d="M17.4,10.4l-1.8-6.5c-0.2-0.6-0.5-1.1-1-1.4c-0.6-0.4-0.2-0.6-0.8-0.8l-0.4-0.2
		c-0.2-0.1-0.5-0.1-0.7,0c-0.1,0-0.1,0-0.2,0.1c-0.1,0-0.2,0.1-0.4,0.2c-0.2,0.1-0.4,0.1-0.6,0.1l-6.8,0c-0.2,0-0.4,0-0.6-0.1
		c-0.1,0-0.2-0.1-0.4-0.2c-0.1,0-0.1-0.1-0.2-0.1C3.2,1.4,3,1.4,2.7,1.5L2.3,1.7C1.6,1.9,2,2.1,1.5,2.5C1,2.8,0.6,3.3,0.5,3.9
		l-1.8,6.5c-0.4,1.5,0.2,3.1,1.5,3.9c0,0,0.1,0,0.1,0.1c0.2,0.1,0.4,0.2,0.5,0.2c0.2,0,0.3-0.1,0.4-0.2c1.2-0.9,2.1-3.8,3.9-4.1
		c0.1,0,0.4-0.1,0.7-0.1l4.6,0c0.3,0,0.6,0,0.7,0.1c1.7,0.4,2.7,3.2,3.9,4.1c0.1,0,0.2,0.1,0.4,0.2c0.1,0,0.3,0,0.5-0.2
		c0,0,0.1,0,0.1-0.1C17.2,13.5,17.8,11.9,17.4,10.4z M3.2,5.9v0.9H2.5V5.9H1.6V5.1h0.9V4.2h0.8v0.9h0.9v0.8H3.2z M5.2,9.4
		c-0.6,0-1.1-0.5-1.1-1.1c0-0.6,0.5-1.1,1.1-1.1s1.1,0.5,1.1,1.1C6.4,8.8,5.9,9.4,5.2,9.4z M6.7,5.8c-0.2,0-0.4-0.2-0.4-0.4
		c0-0.2,0.2-0.4,0.4-0.4c0.2,0,0.4,0.2,0.4,0.4C7.1,5.7,6.9,5.8,6.7,5.8z M8.9,5.4c0-0.2,0.2-0.4,0.4-0.4s0.4,0.2,0.4,0.4
		c0,0.2-0.2,0.4-0.4,0.4S8.9,5.7,8.9,5.4z M10.8,9.4c-0.6,0-1.1-0.5-1.1-1.1c0-0.6,0.5-1.1,1.1-1.1c0.6,0,1.1,0.5,1.1,1.1
		C11.9,8.8,11.4,9.4,10.8,9.4z M11.6,6C11.3,6,11,5.8,11,5.4c0-0.3,0.3-0.6,0.6-0.6c0.3,0,0.6,0.3,0.6,0.6C12.1,5.8,11.9,6,11.6,6z
		 M12.9,7.3c-0.3,0-0.6-0.3-0.6-0.6c0-0.3,0.3-0.6,0.6-0.6s0.6,0.3,0.6,0.6C13.4,7,13.2,7.3,12.9,7.3z M12.9,4.6
		c-0.3,0-0.6-0.3-0.6-0.6s0.3-0.6,0.6-0.6s0.6,0.3,0.6,0.6S13.2,4.6,12.9,4.6z M14.2,6c-0.3,0-0.6-0.3-0.6-0.6
		c0-0.3,0.3-0.6,0.6-0.6s0.6,0.3,0.6,0.6C14.8,5.8,14.5,6,14.2,6z"/>
</g>
<g id="_x32_">
	<path id="XMLID_1_" class="st1" d="M17.4,10.4l-1.8-6.5c-0.2-0.6-0.5-1.1-1-1.4c-0.6-0.4-0.2-0.6-0.8-0.8l-0.4-0.2
		c-0.2-0.1-0.5-0.1-0.7,0c-0.1,0-0.1,0-0.2,0.1c-0.1,0-0.2,0.1-0.4,0.2c-0.2,0.1-0.4,0.1-0.6,0.1l-6.8,0c-0.2,0-0.4,0-0.6-0.1
		c-0.1,0-0.2-0.1-0.4-0.2c-0.1,0-0.1-0.1-0.2-0.1C3.2,1.4,3,1.4,2.7,1.5L2.3,1.7C1.6,1.9,2,2.1,1.5,2.5C1,2.8,0.6,3.3,0.5,3.9
		l-1.8,6.5c-0.4,1.5,0.2,3.1,1.5,3.9c0,0,0.1,0,0.1,0.1c0.2,0.1,0.4,0.2,0.5,0.2c0.2,0,0.3-0.1,0.4-0.2c1.2-0.9,2.1-3.8,3.9-4.1
		c0.1,0,0.4-0.1,0.7-0.1l4.6,0c0.3,0,0.6,0,0.7,0.1c1.7,0.4,2.7,3.2,3.9,4.1c0.1,0,0.2,0.1,0.4,0.2c0.1,0,0.3,0,0.5-0.2
		c0,0,0.1,0,0.1-0.1C17.2,13.5,17.8,11.9,17.4,10.4z"/>
</g>
</svg>
