<?xml version="1.0" encoding="utf-8"?>
<!-- Generator: Adobe Illustrator 19.0.0, SVG Export Plug-In . SVG Version: 6.00 Build 0)  -->
<svg version="1.1" id="Capa_4" xmlns="http://www.w3.org/2000/svg" xmlns:xlink="http://www.w3.org/1999/xlink" x="0px" y="0px"
	 viewBox="0 0 16 16" style="enable-background:new 0 0 16 16;" xml:space="preserve">
<style type="text/css">
	.st0{fill:#FFFFFF;}
</style>
<path id="XMLID_37_" class="st0" d="M15.9,10.1l-1.5-5.5c-0.1-0.5-0.4-0.9-0.8-1.2C13,3,13.4,2.9,12.8,2.7l-0.4-0.1
	c-0.2-0.1-0.4-0.1-0.6,0c0,0-0.1,0-0.2,0.1c-0.1,0-0.2,0.1-0.3,0.1c-0.1,0.1-0.3,0.1-0.5,0.1l-5.8,0c-0.2,0-0.3,0-0.5-0.1
	c-0.1,0-0.2-0.1-0.3-0.1c-0.1,0-0.1,0-0.2-0.1C4,2.5,3.8,2.5,3.6,2.5L3.2,2.7C2.6,2.9,3,3,2.5,3.4C2.1,3.7,1.8,4.1,1.7,4.6l-1.5,5.5
	c-0.4,1.2,0.2,2.6,1.3,3.3c0,0,0.1,0,0.1,0c0.2,0.1,0.3,0.2,0.4,0.1c0.2,0,0.3-0.1,0.3-0.1c1-0.7,1.8-3.2,3.2-3.5
	c0.1,0,0.3-0.1,0.6-0.1l3.9,0c0.3,0,0.5,0,0.6,0.1c1.5,0.3,2.3,2.7,3.2,3.5c0,0,0.2,0.1,0.3,0.1c0.1,0,0.3,0,0.4-0.1
	c0,0,0.1,0,0.1,0C15.7,12.6,16.2,11.3,15.9,10.1z M4,6.2v0.7H3.4V6.2H2.6V5.5h0.7V4.8H4v0.8h0.8v0.6H4z M5.7,9.1c-0.5,0-1-0.4-1-1
	c0-0.5,0.4-1,1-1s1,0.4,1,1C6.6,8.7,6.2,9.1,5.7,9.1z M6.9,6.2C6.7,6.2,6.6,6,6.6,5.8c0-0.2,0.1-0.3,0.3-0.3s0.3,0.1,0.3,0.3
	C7.2,6,7.1,6.2,6.9,6.2z M8.8,5.8c0-0.2,0.1-0.3,0.3-0.3s0.3,0.1,0.3,0.3c0,0.2-0.1,0.3-0.3,0.3S8.8,6,8.8,5.8z M10.3,9.1
	c-0.5,0-1-0.4-1-1c0-0.5,0.4-1,1-1c0.5,0,1,0.4,1,1C11.3,8.7,10.9,9.1,10.3,9.1z M11,6.3c-0.3,0-0.5-0.2-0.5-0.5
	c0-0.3,0.2-0.5,0.5-0.5s0.5,0.2,0.5,0.5C11.5,6.1,11.3,6.3,11,6.3z M12.1,7.4c-0.3,0-0.5-0.2-0.5-0.5c0-0.3,0.2-0.5,0.5-0.5
	c0.3,0,0.5,0.2,0.5,0.5C12.6,7.2,12.3,7.4,12.1,7.4z M12.1,5.2c-0.3,0-0.5-0.2-0.5-0.5s0.2-0.5,0.5-0.5c0.3,0,0.5,0.2,0.5,0.5
	S12.3,5.2,12.1,5.2z M13.2,6.3c-0.3,0-0.5-0.2-0.5-0.5c0-0.3,0.2-0.5,0.5-0.5c0.3,0,0.5,0.2,0.5,0.5C13.7,6.1,13.5,6.3,13.2,6.3z"/>
</svg>
