<?xml version="1.0" encoding="utf-8"?>
<!-- Generator: Adobe Illustrator 19.0.0, SVG Export Plug-In . SVG Version: 6.00 Build 0)  -->
<svg version="1.1" xmlns="http://www.w3.org/2000/svg" xmlns:xlink="http://www.w3.org/1999/xlink" x="0px" y="0px"
	 viewBox="0 0 16 16" style="enable-background:new 0 0 16 16;" xml:space="preserve">
<style type="text/css">
	.st0{fill:#FFFFFF;stroke:#000000;stroke-miterlimit:10;stroke-opacity:0.75;}
	.st1{opacity:0.75;}
	.st2{opacity:0.6;}
	.st3{opacity:0.25;}
	.st4{opacity:0.5;}
	.st5{opacity:0.3;}
</style>
<g id="Capa_3">
	<path class="st0" d="M13.5,0.5h-11v15h9c0.8-0.8,1.2-1.2,2-2V0.5z"/>
</g>
<g id="Capa_4">
	<polygon class="st1" points="7,9.6 5.9,9.6 5.9,8.5 5.1,8.5 5.1,9.6 4,9.6 4,10.4 5.1,10.4 5.1,11.5 5.9,11.5 5.9,10.4 7,10.4 	"/>
</g>
<g id="Capa_5">
	<circle class="st2" cx="9.4" cy="10.7" r="0.7"/>
	<circle class="st2" cx="11.4" cy="9.4" r="0.7"/>
</g>
<g id="Capa_6">
	<rect x="4" y="2.3" class="st3" width="8" height="4.5"/>
</g>
<g id="Capa_7">
	<rect x="5.3" y="2.8" class="st4" width="5.5" height="3.5"/>
</g>
<g id="Capa_8">
	<path class="st5" d="M13.5,13.5h-11v2h9C12.3,14.7,12.7,14.3,13.5,13.5L13.5,13.5z"/>
</g>
</svg>
