<?xml version="1.0" encoding="utf-8"?>
<!-- Generator: Adobe Illustrator 19.0.0, SVG Export Plug-In . SVG Version: 6.00 Build 0)  -->
<svg version="1.1" xmlns="http://www.w3.org/2000/svg" xmlns:xlink="http://www.w3.org/1999/xlink" x="0px" y="0px"
	 viewBox="-2 -2 20 20" style="enable-background:new -2 -2 20 20;" xml:space="preserve">
<style type="text/css">
	.st0{fill:#FFFFFF;stroke:#000000;stroke-miterlimit:10;stroke-opacity:0.75;}
	.st1{opacity:0.75;}
	.st2{opacity:0.6;}
	.st3{opacity:0.25;}
	.st4{opacity:0.5;}
	.st5{opacity:0.3;}
</style>
<g id="Capa_3">
	<path class="st0" d="M1,15V-1.5h14V15c0,1.4-1.1,2.5-2.5,2.5H3.5C2.1,17.5,1,16.4,1,15z"/>
</g>
<g id="Capa_4">
	<polygon class="st1" points="7,10 5.5,10 5.5,8.5 4.5,8.5 4.5,10 3,10 3,11 4.5,11 4.5,12.5 5.5,12.5 5.5,11 7,11 	"/>
</g>
<g id="Capa_5">
	<circle class="st2" cx="9.5" cy="11.5" r="1"/>
	<circle class="st2" cx="12" cy="9.5" r="1"/>
</g>
<g id="Capa_6">
	<rect x="3" y="0.5" class="st3" width="10" height="6"/>
</g>
<g id="Capa_7">
	<rect x="4.5" y="1.3" class="st4" width="7" height="4.5"/>
</g>
<g id="Capa_8">
	<path class="st5" d="M15,15H1v0c0,1.4,1.1,2.5,2.5,2.5h9C13.9,17.5,15,16.4,15,15L15,15z"/>
</g>
</svg>
