<?xml version="1.0" encoding="utf-8"?>
<!-- Generator: Adobe Illustrator 19.0.0, SVG Export Plug-In . SVG Version: 6.00 Build 0)  -->
<svg version="1.1" xmlns="http://www.w3.org/2000/svg" xmlns:xlink="http://www.w3.org/1999/xlink" x="0px" y="0px"
	 viewBox="-2 -2 20 20" style="enable-background:new -2 -2 20 20;" xml:space="preserve">
<style type="text/css">
	.st0{fill:#EDEDED;stroke:#000000;stroke-miterlimit:10;stroke-opacity:0.75;}
	.st1{opacity:0.35;fill:url(#SVGID_1_);}
	.st2{opacity:0.65;}
	.st3{fill-opacity:0.65;}
	.st4{fill-opacity:0.35;}
	.st5{fill-opacity:0.45;}
</style>
<g id="_x31_">
	<path class="st0" d="M17,11.7l0.2-0.6c0.2-0.6,0.3-1.2,0.2-1.8L16.9,4c0-0.6-0.4-1.1-1.1-1.3C15.1,2.6,14,2.4,13.5,2
		c-0.4-0.2-0.9-0.4-2.1-0.4l-7.5,0C3.4,1.6,2.9,1.8,2.5,2C2,2.4,1,2.6,0.1,2.8C-0.5,2.9-0.9,3.4-0.9,4l-0.5,5.3
		c-0.1,0.6,0,1.2,0.2,1.8l0.2,0.6c0.3,0.7,0.9,1.3,1.6,1.5l3.3,1c0.1,0,0.1,0,0.2,0.1c0.5,0.1,1,0.1,1.4,0.1h4.8c0.5,0,1,0,1.5-0.1
		c0.1,0,0.2,0,0.2-0.1l3.3-1C16.1,13,16.7,12.4,17,11.7z"/>
</g>
<g id="_x32_">
	<linearGradient id="SVGID_1_" gradientUnits="userSpaceOnUse" x1="8" y1="14.3826" x2="8" y2="1.6172">
		<stop  offset="0" style="stop-color:#000000;stop-opacity:0.3"/>
		<stop  offset="1" style="stop-color:#000000;stop-opacity:0"/>
	</linearGradient>
	<path class="st1" d="M17,11.7l0.2-0.6c0.2-0.6,0.3-1.2,0.2-1.8L16.9,4c0-0.6-0.4-1.1-1.1-1.3C15.1,2.6,14,2.4,13.5,2
		c-0.4-0.2-0.9-0.4-2.1-0.4l-7.5,0C3.4,1.6,2.9,1.8,2.5,2C2,2.4,1,2.6,0.1,2.8C-0.5,2.9-0.9,3.4-0.9,4l-0.5,5.3
		c-0.1,0.6,0,1.2,0.2,1.8l0.2,0.6c0.3,0.7,0.9,1.3,1.6,1.5l3.3,1c0.1,0,0.1,0,0.2,0.1c0.5,0.1,1,0.1,1.4,0.1h4.8c0.5,0,1,0,1.5-0.1
		c0.1,0,0.2,0,0.2-0.1l3.3-1C16.1,13,16.7,12.4,17,11.7z"/>
</g>
<g id="_x33_">
	<circle class="st2" cx="15" cy="7.4" r="0.8"/>
	<circle class="st2" cx="13.7" cy="8.6" r="0.8"/>
</g>
<g id="_x34_">
	<polygon class="st3" points="2.8,7.6 1.9,7.6 1.9,6.7 1.1,6.7 1.1,7.6 0.2,7.6 0.2,8.4 1.1,8.4 1.1,9.3 1.9,9.3 1.9,8.4 2.8,8.4 	
		"/>
</g>
<g id="_x35_">
	<path class="st4" d="M8.4,11.5H7.6c-1.2,0-4.1,0-4-1.1l0.3-4.9c0-0.5,0.5-0.9,1-0.9h6.1c0.5,0,1,0.4,1,0.9l0.3,4.9
		C12.4,11.5,9.5,11.5,8.4,11.5z"/>
</g>
<g id="_x36_">
	<rect x="5" y="5.8" class="st5" width="6" height="4"/>
</g>
</svg>
