<?xml version="1.0" encoding="utf-8"?>
<!-- Generator: Adobe Illustrator 19.0.0, SVG Export Plug-In . SVG Version: 6.00 Build 0)  -->
<svg version="1.1" xmlns="http://www.w3.org/2000/svg" xmlns:xlink="http://www.w3.org/1999/xlink" x="0px" y="0px"
	 viewBox="0 0 16 16" style="enable-background:new 0 0 16 16;" xml:space="preserve">
<style type="text/css">
	.st0{fill:#EDEDED;stroke:#000000;stroke-miterlimit:10;stroke-opacity:0.75;}
	.st1{display:none;}
	.st2{display:inline;opacity:0.3;}
	.st3{opacity:0.65;}
	.st4{fill-opacity:0.65;}
	.st5{fill-opacity:0.5;}
	.st6{fill-opacity:0.35;}
</style>
<g id="Capa_2">
	<path class="st0" d="M15.1,10.9l0.2-0.5c0.2-0.4,0.2-0.9,0.2-1.4L15,4.9c0-0.5-0.3-0.9-0.8-1c-0.6-0.1-1.5-0.3-1.9-0.6
		C12,3.1,11.6,3,10.7,3L4.8,3C4.4,3,4,3.1,3.7,3.3C3.3,3.6,2.5,3.8,1.8,3.9C1.4,4,1,4.4,1,4.9L0.6,9c0,0.5,0,1,0.2,1.4l0.2,0.5
		c0.2,0.6,0.7,1,1.3,1.2l2.6,0.8c0.1,0,0.1,0,0.2,0C5.4,13,5.7,13,6.1,13h3.8c0.4,0,0.8,0,1.1-0.1c0.1,0,0.1,0,0.2,0l2.6-0.8
		C14.4,11.9,14.8,11.5,15.1,10.9z"/>
</g>
<g id="Capa_5" class="st1">
	<path class="st2" d="M14.8,11.3c-0.5,0.5-1.3,1.7-3.4,1.7H4.7c-2.1,0-3.2-1.3-3.6-1.7H14.8z"/>
</g>
<g id="Capa_4">
	<circle class="st3" cx="13.5" cy="8" r="0.5"/>
	<circle class="st3" cx="12.5" cy="9" r="0.5"/>
</g>
<g id="Capa_6">
	<polygon class="st4" points="3.8,7.7 3.1,7.7 3.1,7 2.4,7 2.4,7.7 1.8,7.7 1.8,8.3 2.4,8.3 2.4,9 3.1,9 3.1,8.3 3.8,8.3 	"/>
</g>
<g id="Capa_3">
	<path class="st5" d="M11,11H5c-0.3,0-0.5-0.2-0.5-0.5v-5C4.5,5.2,4.7,5,5,5h6c0.3,0,0.5,0.2,0.5,0.5v5C11.5,10.8,11.3,11,11,11z"/>
</g>
<g id="Capa_7">
	<rect x="5" y="5.5" class="st6" width="6" height="4"/>
</g>
</svg>
