<?xml version="1.0" encoding="utf-8"?>
<!-- Generator: Adobe Illustrator 19.0.0, SVG Export Plug-In . SVG Version: 6.00 Build 0)  -->
<svg version="1.1" xmlns="http://www.w3.org/2000/svg" xmlns:xlink="http://www.w3.org/1999/xlink" x="0px" y="0px"
	 viewBox="0 0 16 16" style="enable-background:new 0 0 16 16;" xml:space="preserve">
<style type="text/css">
	.st0{fill:#FFFFFF;stroke:#000000;stroke-miterlimit:10;stroke-opacity:0.75;}
	.st1{fill:url(#XMLID_9_);}
	.st2{fill-opacity:0.15;}
	.st3{opacity:0.4;}
	.st4{opacity:0.35;}
	.st5{opacity:0.3;}
	.st6{fill-opacity:5.000000e-002;stroke:#000000;stroke-width:0.5;stroke-miterlimit:10;stroke-opacity:0.25;}
</style>
<g id="_x31_">
	<path id="XMLID_7_" class="st0" d="M14.5,2.3c-0.1-0.7-0.9-1.8-2-1.8H3.5c-1.2,0-1.9,1.1-1.9,1.8L1,10.5l-0.5,1.9
		c-0.1,1.4,0.7,2.6,2,3c0.5,0.2,1,0,1.4-0.4l0.5-0.5l7.3,0l0.5,0.5c0.4,0.4,0.9,0.5,1.4,0.4c1.2-0.4,2.1-1.6,2-3L15,10.5L14.5,2.3z"
		/>
</g>
<g id="_x32_">
	<linearGradient id="XMLID_9_" gradientUnits="userSpaceOnUse" x1="8" y1="15.5" x2="8" y2="0.5">
		<stop  offset="0" style="stop-color:#000000;stop-opacity:0.3"/>
		<stop  offset="1" style="stop-color:#000000;stop-opacity:0"/>
	</linearGradient>
	<path id="XMLID_6_" class="st1" d="M14.5,2.3c-0.1-0.7-0.9-1.8-2-1.8H3.5c-1.2,0-1.9,1.1-1.9,1.8L1,10.5l-0.5,1.9
		c-0.1,1.4,0.7,2.6,2,3c0.5,0.2,1,0,1.4-0.4l0.5-0.5l7.3,0l0.5,0.5c0.4,0.4,0.9,0.5,1.4,0.4c1.2-0.4,2.1-1.6,2-3L15,10.5L14.5,2.3z"
		/>
</g>
<g id="_x33_">
	<path id="XMLID_5_" class="st2" d="M3.3,1l0.4,4.4C3.9,7.4,5.6,9,7.6,9h0.7c2.1,0,3.8-1.6,4-3.6L12.8,1H3.3z"/>
</g>
<g id="_x34_">
	<path id="XMLID_1_" class="st3" d="M12,4.3c0,0.8-0.7,1.5-1.5,1.5h-5C4.7,5.8,4,5.1,4,4.3H12z"/>
	<path id="XMLID_3_" class="st4" d="M4,11.9L4,11.9c-0.4,0-0.8-0.3-0.8-0.7V9.9c0-0.4,0.3-0.7,0.7-0.7h0c0.4,0,0.7,0.3,0.7,0.7v1.3
		C4.8,11.6,4.4,11.9,4,11.9z"/>
	<path id="XMLID_4_" class="st4" d="M12,11.9L12,11.9c-0.4,0-0.8-0.3-0.8-0.7V9.9c0-0.4,0.3-0.7,0.7-0.7h0c0.4,0,0.7,0.3,0.7,0.7
		v1.3C12.8,11.6,12.4,11.9,12,11.9z"/>
	<g id="XMLID_11_">
		<path id="XMLID_15_" class="st5" d="M6.3,8.4c0.2,0.1,0.3,0.1,0.5,0.2V7.3H6.3V8.4z"/>
		<path id="XMLID_16_" class="st5" d="M8.8,7.3H8.3v1.5c0.1,0,0.3,0,0.5-0.1V7.3z"/>
		<path id="XMLID_17_" class="st5" d="M7.8,7.3H7.3v1.4c0.2,0,0.4,0.1,0.5,0.1V7.3z"/>
		<path id="XMLID_18_" class="st5" d="M9.8,7.3H9.3v1.3c0.2,0,0.3-0.1,0.5-0.2V7.3z"/>
		<path id="XMLID_19_" class="st5" d="M5.8,7.3h-1c0,0.3,0.4,0.7,1,0.9V7.3z"/>
		<path id="XMLID_20_" class="st5" d="M10.3,7.3v0.9c0.6-0.3,1-0.6,1-0.9H10.3z"/>
	</g>
	<path id="XMLID_2_" class="st6" d="M9.5,12.8h-3c-0.3,0-0.5-0.2-0.5-0.5v-1.5c0-0.3,0.2-0.5,0.5-0.5h3c0.3,0,0.5,0.2,0.5,0.5v1.5
		C10,12.5,9.8,12.8,9.5,12.8z"/>
</g>
</svg>
