<?xml version="1.0" encoding="utf-8"?>
<!-- Generator: Adobe Illustrator 19.0.0, SVG Export Plug-In . SVG Version: 6.00 Build 0)  -->
<svg version="1.1" xmlns="http://www.w3.org/2000/svg" xmlns:xlink="http://www.w3.org/1999/xlink" x="0px" y="0px"
	 viewBox="0 0 16 16" style="enable-background:new 0 0 16 16;" xml:space="preserve">
<style type="text/css">
	.st0{fill:#FFFFFF;stroke:#000000;stroke-miterlimit:10;stroke-opacity:0.75;}
	.st1{opacity:0.35;}
	.st2{opacity:0.5;}
	.st3{opacity:0.3;}
	.st4{opacity:0.2;}
	.st5{opacity:0.1;}
</style>
<g id="Capa_2">
	<path id="XMLID_1_" class="st0" d="M15,15.5H1c-0.3,0-0.5-0.2-0.5-0.5V1c0-0.3,0.2-0.5,0.5-0.5h14c0.3,0,0.5,0.2,0.5,0.5v14
		C15.5,15.3,15.3,15.5,15,15.5z"/>
</g>
<g id="Capa_3">
	<rect id="XMLID_2_" x="0.5" y="7.3" class="st1" width="15" height="1.4"/>
	<rect id="XMLID_3_" x="3.6" y="10" class="st2" width="3.4" height="1.4"/>
	<rect id="XMLID_4_" x="9" y="10" class="st2" width="3.4" height="1.4"/>
	<path id="XMLID_5_" class="st3" d="M15,15.5H1c-0.3,0-0.5-0.2-0.5-0.5v-2.2h15V15C15.5,15.2,15.3,15.5,15,15.5z"/>
	<rect id="XMLID_6_" x="0.5" y="3.2" class="st4" width="15" height="1.4"/>
	<rect id="XMLID_7_" x="3.2" y="5.3" class="st4" width="9.5" height="1.4"/>
	<rect id="XMLID_8_" x="3.2" y="3.2" class="st5" width="1.4" height="11.6"/>
	<rect id="XMLID_9_" x="11.4" y="3.2" class="st5" width="1.4" height="11.6"/>
</g>
</svg>
