<?xml version="1.0" encoding="utf-8"?>
<!-- Generator: Adobe Illustrator 19.0.0, SVG Export Plug-In . SVG Version: 6.00 Build 0)  -->
<svg version="1.1" xmlns="http://www.w3.org/2000/svg" xmlns:xlink="http://www.w3.org/1999/xlink" x="0px" y="0px"
	 viewBox="0 0 20 20" style="enable-background:new 0 0 20 20;" xml:space="preserve">
<style type="text/css">
	.st0{fill:#FFFFFF;stroke:#000000;stroke-miterlimit:10;stroke-opacity:0.75;}
	.st1{opacity:0.35;}
	.st2{opacity:0.5;}
	.st3{opacity:0.3;}
	.st4{opacity:0.15;}
	.st5{opacity:0.2;}
	.st6{opacity:0.1;}
</style>
<g id="_x31_">
	<path id="XMLID_1_" class="st0" d="M18.5,19.5h-17c-0.6,0-1-0.4-1-1v-17c0-0.6,0.4-1,1-1h17c0.6,0,1,0.4,1,1v17
		C19.5,19.1,19.1,19.5,18.5,19.5z"/>
</g>
<g id="_x32_">
	<rect id="XMLID_2_" x="0.5" y="8.7" class="st1" width="19" height="1.5"/>
	<rect id="XMLID_3_" x="4.5" y="11.5" class="st2" width="4" height="2"/>
	<rect id="XMLID_4_" x="11.5" y="11.5" class="st2" width="4" height="2"/>
	<path id="XMLID_5_" class="st3" d="M18.5,19.5h-17c-0.6,0-1-0.4-1-1V16h19v2.5C19.5,19,19.1,19.5,18.5,19.5z"/>
	<rect id="XMLID_6_" x="0.5" y="3.8" class="st4" width="19" height="1.5"/>
	<rect id="XMLID_7_" x="3.5" y="6.3" class="st5" width="13" height="1.5"/>
	<rect id="XMLID_9_" x="10.5" y="4" class="st6" width="1" height="15"/>
	<rect id="XMLID_8_" x="3.5" y="4" class="st6" width="1" height="15"/>
	<rect id="XMLID_10_" x="8.5" y="4" class="st6" width="1" height="15"/>
	<rect id="XMLID_11_" x="15.5" y="4" class="st6" width="1" height="15"/>
	<rect id="XMLID_12_" x="8.5" y="11.8" class="st1" width="3" height="3.5"/>
</g>
</svg>
